<?xml version="1.0" encoding="UTF-8" standalone="no"?>
<svg width="94px" height="26px" viewBox="0 0 94 26" version="1.1" xmlns="http://www.w3.org/2000/svg" xmlns:xlink="http://www.w3.org/1999/xlink">
    <!-- Generator: Sketch 3.8.1 (29687) - http://www.bohemiancoding.com/sketch -->
    <title>Page 1</title>
    <desc>Created with Sketch.</desc>
    <defs>
        <polygon id="path-1" points="12.1677547 8.33139965 12.1677547 0.0693839582 0.0510572117 0.0693839582 0.0510572117 8.33139965 12.1677547 8.33139965"></polygon>
        <polygon id="path-3" points="17.4194726 0.124242371 0.161444041 0.124242371 0.161444041 24.816363 17.4194726 24.816363 17.4194726 0.124242371"></polygon>
    </defs>
    <g id="Symbols" stroke="none" stroke-width="1" fill="none" fill-rule="evenodd">
        <g id="Main-Nav" transform="translate(-21.000000, -17.000000)">
            <g id="Page-1">
                <g transform="translate(21.000000, 17.000000)">
                    <path d="M43.8671489,9.32962284 C42.7829962,9.32962284 41.9181537,9.76314507 41.2894915,10.6177449 L41.2894915,6.68911543 L39.9043207,6.68911543 L39.9043207,17.5916385 L41.2894915,17.5916385 L41.2894915,12.9728417 C41.2894915,11.5837344 42.2126676,10.6138687 43.5348299,10.6138687 C44.8238619,10.6138687 45.5962242,11.4617362 45.5962242,12.882465 L45.5962242,17.5916385 L46.9809884,17.5916385 L46.9809884,12.5921582 C46.9809884,10.6099925 45.7600463,9.32962284 43.8671489,9.32962284" id="Fill-1" fill="#FFFFFF"></path>
                    <path d="M62.0580082,9.32962284 C60.973449,9.32962284 60.1086065,9.76314507 59.4807573,10.6177449 L59.4807573,9.49731944 L58.0945702,9.49731944 L58.0945702,17.5916385 L59.4807573,17.5916385 L59.4807573,12.9728417 C59.4807573,11.5837344 60.4021042,10.6138687 61.7228437,10.6138687 C63.0151277,10.6138687 63.7856607,11.4617362 63.7856607,12.882465 L63.7856607,17.5916385 L65.1714412,17.5916385 L65.1714412,12.5921582 C65.1714412,10.6099925 63.94806,9.32962284 62.0580082,9.32962284" id="Fill-3" fill="#FFFFFF"></path>
                    <path d="M68.0430639,6.68901343 L66.6562671,6.68901343 L66.6562671,15.3955679 C66.6562671,16.899533 67.4833045,17.7280195 68.9810775,17.7280195 C69.5241702,17.7280195 69.9881973,17.6184659 70.4440943,17.3812017 L70.5014117,17.3503962 L70.5014117,16.1055243 L70.346736,16.1803962 C69.9593353,16.3678818 69.6442928,16.4433656 69.2554694,16.4433656 C68.4400174,16.4433656 68.0430639,16.0516656 68.0430639,15.2431721 L68.0430639,10.5839812 L70.5316964,10.5839812 L70.5316964,9.32952084 L68.0430639,9.32952084 L68.0430639,6.68901343 Z" id="Fill-5" fill="#FFFFFF"></path>
                    <g id="Group-9" transform="translate(81.098039, 9.260239)">
                        <mask id="mask-2" fill="white">
                            <use xlink:href="#path-1"></use>
                        </mask>
                        <g id="Clip-8"></g>
                        <path d="M9.14379376,0.0693839582 C7.98789263,0.0693839582 7.0862613,0.549012554 6.39418405,1.53336303 C5.87222975,0.587570532 4.98035457,0.0693839582 3.86266505,0.0693839582 C2.62810493,0.0693839582 1.91468609,0.693655972 1.43683774,1.32812851 L1.43683774,0.237080558 L0.0510572117,0.237080558 L0.0510572117,8.33139965 L1.43683774,8.33139965 L1.43683774,3.72790357 C1.43683774,2.35287306 2.30981037,1.35362982 3.51408576,1.35362982 C4.70880826,1.35362982 5.4226336,2.1898687 5.4226336,3.59040052 L5.4226336,8.33139965 L6.79459291,8.33139965 L6.79459291,3.68281726 C6.79459291,2.07358274 7.82894861,1.35362982 8.85740996,1.35362982 C10.0793684,1.35362982 10.7803888,2.18028021 10.7803888,3.62222616 L10.7803888,8.33139965 L12.1677953,8.33139965 L12.1677953,3.34722005 C12.1677953,1.32568038 11.0098617,0.0693839582 9.14379376,0.0693839582" id="Fill-7" fill="#FFFFFF" mask="url(#mask-2)"></path>
                    </g>
                    <path d="M78.4924344,13.5822209 C78.4924344,15.2481704 77.3019802,16.5044668 75.7198571,16.5044668 C74.155417,16.5044668 72.9295967,15.2077763 72.9295967,13.5514153 L72.9295967,13.5206098 C72.9295967,11.8462959 74.1157826,10.5840832 75.6883528,10.5840832 C77.2617361,10.5840832 78.4924344,11.887506 78.4924344,13.5514153 L78.4924344,13.5822209 Z M75.7198571,9.32962284 C73.3606968,9.32962284 71.5127185,11.184894 71.5127185,13.5514153 L71.5127185,13.5822209 C71.5127185,15.9334415 73.3472821,17.7742279 75.6883528,17.7742279 C78.057066,17.7742279 79.9117517,15.9195688 79.9117517,13.5514153 L79.9117517,13.5206098 C79.9117517,11.1714293 78.0690579,9.32962284 75.7198571,9.32962284 L75.7198571,9.32962284 Z" id="Fill-10" fill="#FFFFFF"></path>
                    <path d="M0,19.3776277 C0.0191058037,22.5767158 2.6166821,25.1729529 5.80938385,25.1729529 L6.45694865,25.1729529 L6.45694865,21.1606792 L5.80938385,21.1539468 C4.80490638,21.1539468 3.99209671,20.3793191 3.97319416,19.3776277 C3.99209671,18.3745083 4.80490638,17.6041648 5.80938385,17.6041648 L5.80938385,17.5974324 L6.45694865,17.5974324 L6.45694865,13.5808745 L5.80938385,13.5808745 C2.6166821,13.5808745 0.0191058037,16.1785397 0,19.3776277" id="Fill-12" fill="#FFFFFF"></path>
                    <g id="Group-16" transform="translate(7.520370, 0.079768)">
                        <mask id="mask-4" fill="white">
                            <use xlink:href="#path-3"></use>
                        </mask>
                        <g id="Clip-15"></g>
                        <path d="M8.79096648,0.124160767 C4.03260508,0.124160767 0.161444041,4.05564638 0.161444041,8.78358884 L0.161444041,24.816363 L0.248029918,24.7886176 C2.58971039,23.9993011 4.1624839,21.8076167 4.1624839,19.3333779 L4.1624839,8.78358884 C4.1624839,6.26038745 6.23871565,4.1399027 8.79096648,4.1399027 C11.342201,4.1399027 13.4174165,6.2224415 13.4174165,8.78358884 C13.4174165,11.3449402 11.342201,13.5009228 8.79096648,13.5009228 L5.38037726,13.5009228 L5.38037726,17.5176847 L8.79096648,17.5176847 C13.5483116,17.5176847 17.4194726,13.5590657 17.4194726,8.78358884 C17.4194726,4.00811194 13.5483116,0.124160767 8.79096648,0.124160767" id="Fill-14" fill="#FFFFFF" mask="url(#mask-4)"></path>
                    </g>
                    <path d="M34.410955,6.51311561 C32.0615509,6.51311561 30.2198733,8.35390201 30.2198733,10.7051226 L30.2198733,10.7349081 C30.2198733,10.7455167 30.2204831,10.7551051 30.2204831,10.7657137 L30.2198733,10.7657137 L30.2198733,17.597412 L31.6351256,17.597412 L31.6351256,10.7657137 L31.6351256,10.7349081 L31.6351256,10.5196771 L31.6444752,10.5196771 C31.7471181,8.96042511 32.9359463,7.76757594 34.4400202,7.76757594 C36.0146229,7.76757594 37.200199,9.03019669 37.200199,10.7051226 L37.200199,10.7349081 C37.200199,12.390249 35.9747853,13.6883676 34.410955,13.6883676 C33.7341217,13.6883676 33.1385897,13.4486553 32.6686683,13.0555271 L32.6686683,14.5656126 C33.2058665,14.8116492 33.8005855,14.9577207 34.4400202,14.9577207 C36.7821072,14.9577207 38.6164676,13.1159142 38.6164676,10.7657137 L38.6164676,10.7349081 C38.6164676,8.36797873 36.7701152,6.51311561 34.410955,6.51311561" id="Fill-17" fill="#FFFFFF"></path>
                    <path d="M52.3939675,9.32962284 C50.0331812,9.32962284 48.1858126,11.184894 48.1858126,13.5514153 L48.1858126,13.5822209 C48.1858126,15.9334415 50.0197665,17.7742279 52.36226,17.7742279 C52.9978329,17.7742279 53.5897063,17.6306045 54.124059,17.386812 L54.124059,15.8810108 C53.6547473,16.2680187 53.0628739,16.5044668 52.3939675,16.5044668 C50.8291209,16.5044668 49.6037072,15.2077763 49.6037072,13.5514153 L49.6037072,13.5206098 C49.6037072,11.8462959 50.7884702,10.5840832 52.36226,10.5840832 C53.8663339,10.5840832 55.0616662,11.7769323 55.163496,13.3372044 L55.163496,17.5916385 L56.5848459,17.5916385 L56.5848459,13.5206098 C56.5848459,11.1714293 54.7431684,9.32962284 52.3939675,9.32962284" id="Fill-19" fill="#FFFFFF"></path>
                </g>
            </g>
        </g>
    </g>
</svg>